<?xml version="1.0" standalone="no"?>
<!DOCTYPE svg PUBLIC "-//W3C//DTD SVG 20010904//EN"
 "http://www.w3.org/TR/2001/REC-SVG-20010904/DTD/svg10.dtd">
<svg version="1.0" xmlns="http://www.w3.org/2000/svg"
 width="173.000000pt" height="126.000000pt" viewBox="0 0 173.000000 126.000000"
 preserveAspectRatio="xMidYMid meet">

<g transform="translate(0.000000,126.000000) scale(0.100000,-0.100000)"
fill="#000000" stroke="none">
<path d="M1264 1211 c-35 -15 -54 -51 -54 -103 l0 -48 -370 0 c-353 0 -370 1
-370 18 0 26 -31 52 -63 52 -30 0 -57 -23 -57 -49 0 -16 -13 -19 -100 -24
-111 -7 -143 -18 -174 -60 -21 -28 -21 -38 -21 -465 0 -423 1 -438 21 -472 36
-62 20 -61 818 -58 811 3 774 0 796 76 8 25 10 177 8 469 -3 419 -4 432 -24
460 -13 18 -35 31 -61 37 l-41 9 -4 59 c-7 93 -22 102 -166 105 -64 2 -127 -1
-138 -6z m254 -43 c20 -20 15 -86 -7 -98 -11 -5 -69 -10 -130 -10 -107 0 -111
1 -127 25 -17 27 -12 73 9 87 20 13 242 9 255 -4z m-1078 -77 c15 -29 13 -31
-30 -31 -41 0 -52 14 -28 38 18 18 46 14 58 -7z m1202 -99 l23 -23 3 -417 c3
-429 0 -482 -36 -501 -9 -5 -43 -12 -74 -16 l-58 -7 0 135 0 135 35 57 c169
281 -91 611 -406 515 -63 -19 -81 -30 -134 -83 -84 -84 -109 -148 -103 -267 4
-67 10 -96 31 -137 26 -50 27 -59 27 -203 l0 -150 -95 0 -95 0 0 470 0 470 70
0 70 0 0 -94 0 -94 53 51 c29 29 74 63 100 77 29 15 47 32 47 42 0 13 8 18 25
18 14 0 25 -4 25 -10 0 -6 40 -10 101 -10 64 0 98 4 94 10 -4 6 5 10 19 10 18
0 26 -5 26 -18 0 -10 18 -27 47 -42 26 -14 71 -48 100 -77 l53 -51 0 104 0
104 -710 0 -710 0 0 -328 c0 -362 -2 -351 63 -367 l27 -7 0 -130 0 -131 -56 7
c-69 8 -92 20 -104 52 -15 38 -13 857 1 888 7 14 24 30 38 35 16 6 305 9 753
8 l727 -2 23 -23z m-1232 -341 l0 -320 26 -20 c15 -12 37 -21 50 -21 l24 0 0
-130 0 -131 -117 3 -118 3 0 125 c0 119 1 125 22 136 13 6 32 19 43 29 19 17
20 30 20 332 l0 313 25 0 25 0 0 -319z m330 -151 l0 -470 -104 0 -103 0 -7 52
c-11 98 -7 208 8 208 7 0 25 9 40 21 l26 20 0 320 0 319 70 0 70 0 0 -470z
m590 314 c76 -23 159 -107 184 -188 43 -135 -20 -282 -149 -348 -56 -29 -158
-35 -223 -14 -65 22 -134 83 -166 148 -31 61 -35 159 -11 229 52 145 208 220
365 173z m-245 -589 c28 -14 71 -28 98 -31 l47 -7 0 -78 0 -79 -125 0 -125 0
0 98 c0 53 -3 115 -7 137 l-6 40 34 -28 c19 -15 57 -39 84 -52z m395 -70 l0
-125 -110 0 -110 0 0 79 0 78 41 7 c41 7 117 41 154 70 11 8 21 16 23 16 1 0
2 -56 2 -125z"/>
<path d="M1170 768 l-25 -14 -2 -212 -2 -213 37 -16 c42 -18 132 -14 157 7 14
12 15 37 9 224 -3 116 -10 215 -14 220 -14 15 -133 18 -160 4z"/>
<path d="M1053 688 c-73 -103 -69 -214 12 -313 l25 -30 0 193 c0 105 -1 192
-3 192 -2 0 -17 -19 -34 -42z"/>
<path d="M1390 533 l0 -186 25 23 c57 54 83 171 54 247 -13 36 -59 103 -70
103 -5 0 -9 -84 -9 -187z"/>
</g>
</svg>
